<?xml version="1.0" encoding="utf-8"?>
<!-- Generator: Adobe Illustrator 19.0.0, SVG Export Plug-In . SVG Version: 6.00 Build 0)  -->
<svg version="1.1" id="Calque_1" xmlns="http://www.w3.org/2000/svg" xmlns:xlink="http://www.w3.org/1999/xlink" x="0px" y="0px"
	 viewBox="-399 -106 800 600" style="enable-background:new -399 -106 800 600;" xml:space="preserve">
<style type="text/css">
	.st0{fill:#FFFFFF;stroke:#7F00FF;stroke-width:5;stroke-miterlimit:10;}
	.st1{fill:#F6F6F6;}
	.st2{fill:none;stroke:#7F00FF;stroke-width:5;stroke-miterlimit:10;}
</style>
<g>
	<path id="XMLID_1_" class="st0" d="M284.4,434.5h-566.8c-14.4,0-26.1-7.9-26.1-17.8V-28.7c0-9.8,11.6-17.8,26.1-17.8h566.8
		c14.4,0,26.1,7.9,26.1,17.8v445.5C310.4,426.6,298.8,434.5,284.4,434.5z"/>
	<rect id="XMLID_5_" x="-241" y="132.8" class="st1" width="483" height="33"/>
	<rect id="XMLID_2_" x="-245" y="1.5" class="st1" width="84" height="15.5"/>
	<rect id="XMLID_6_" x="-141.7" y="1.5" class="st1" width="84" height="15.5"/>
	<rect id="XMLID_8_" x="-38.3" y="1.5" class="st1" width="84" height="15.5"/>
	<rect id="XMLID_7_" x="-241" y="197.8" class="st1" width="400" height="33"/>
	<rect id="XMLID_3_" x="-241" y="261.8" class="st1" width="292" height="33"/>
	<rect id="XMLID_4_" x="-241" y="327.8" class="st1" width="421" height="33"/>
	<line class="st2" x1="-245" y1="31.3" x2="-161" y2="31.3"/>
</g>
</svg>
